Music_MewBattle::
	channel_count 3
	channel 1, Music_MewBattle_Ch1
	channel 2, Music_MewBattle_Ch2
	channel 3, Music_MewBattle_Ch3

Music_MewBattle_Ch1::
	tempo 104
	volume 7, 7
	duty_cycle 3
	vibrato 6, 3, 4
	toggle_perfect_pitch
	note_type 12, 11, 3
	octave 4
	note E_, 1
	note D#, 1
	note D_, 1
	note C#, 1
	note D_, 1
	note C#, 1
	note C_, 1
	octave 3
	note B_, 1
	octave 4
	note C_, 1
	octave 3
	note B_, 1
	note A#, 1
	note A_, 1
	note A#, 1
	note A_, 1
	note G#, 1
	note G_, 1
	note G#, 1
	note G_, 1
	note F#, 1
	note F_, 1
	note F#, 1
	note F_, 1
	note E_, 1
	note D#, 1
	note E_, 1
	note D#, 1
	note D_, 1
	note C#, 1
	note D_, 1
	note D#, 1
	note E_, 1
	note F_, 1
	note_type 12, 11, 1
	note B_, 6
	note G#, 6
	note G_, 12
	note F_, 14
	note G#, 6
	note G_, 10
	note_type 12, 4, 15
	note F_, 10
	note_type 12, 11, 1
	note B_, 6
	note G#, 6
	note G_, 12
	note F_, 14
	note G#, 6
	note G_, 10
	note F_, 10

Music_MewBattle_branch_230e0::
	note_type 12, 11, 3
	note F_, 1
	note F#, 1
	note F_, 1
	note E_, 1
	note F_, 1
	note F#, 1
	note F_, 1
	note E_, 1
	note F_, 1
	note F#, 1
	note G_, 1
	note F#, 1
	note F_, 1
	note E_, 1
	octave 3
	note D#, 1
	note E_, 1
	note F_, 1
	note F#, 1
	note G_, 1
	note F#, 1
	note F_, 1
	note F#, 1
	note G_, 1
	note F#, 1
	note F_, 1
	note F#, 1
	note G_, 1
	note G#, 1
	note A_, 1
	note G#, 1
	note G_, 1
	note F#, 1
	note F_, 1
	note F#, 1
	note G_, 1
	note G#, 1
	note A_, 1
	note A#, 1
	note B_, 1
	octave 4
	note C_, 1
	note C#, 1
	note C_, 1
	octave 3
	note B_, 1
	note A#, 1
	note A_, 1
	note G#, 1
	note G_, 1
	note F#, 1
	note F_, 1
	note F#, 1
	note G_, 1
	note G#, 1
	note A_, 1
	note A#, 1
	note B_, 1
	note A#, 1
	note A_, 1
	note G#, 1
	note G_, 1
	note G#, 1
	note A_, 1
	note A#, 1
	note B_, 1
	octave 4
	note C_, 1
	note C#, 1
	octave 3
	note F#, 1
	note G_, 1
	note G#, 1
	note G_, 1
	note F#, 1
	note F_, 1
	note F#, 1
	note G_, 1
	note G#, 1
	note G_, 1
	note F#, 1
	note F_, 1
	note F#, 1
	note G_, 1
	note G#, 1
	note G_, 1
	note F#, 1
	note F_, 1
	note F#, 1
	note G_, 1
	note G#, 1
	note G_, 1
	note F#, 1
	note F_, 1
	note F#, 1
	note G_, 1
	note G#, 1
	note A_, 1
	note A#, 1
	note A_, 1
	note G#, 1
	note G_, 1
	note F#, 1
	note G_, 1
	note G#, 1
	note G_, 1
	note F#, 1
	note F_, 1
	note F#, 1
	note G_, 1
	note G#, 1
	note G_, 1
	note F#, 1
	note F_, 1
	note F#, 1
	note G_, 1
	note G#, 1
	note G_, 1
	note F#, 1
	note F_, 1
	note F#, 1
	note G_, 1
	note G#, 1
	note G_, 1
	note F#, 1
	note F_, 1
	note F#, 1
	note G_, 1
	note G#, 1
	note A_, 1
	note A#, 1
	note A_, 1
	note G#, 1
	note F_, 1
	note F#, 1
	note G_, 1
	note G#, 1
	note A_, 1
	note A#, 1
	note B_, 1
	octave 4
	note C_, 1
	note C#, 1
	note C_, 1
	octave 3
	note B_, 1
	note A#, 1
	note A_, 1
	note G#, 1
	note G_, 1
	note F#, 1
	note F_, 1
	note F#, 1
	note G_, 1
	note G#, 1
	note A_, 1
	note A#, 1
	note B_, 1
	octave 4
	note C_, 1
	note C#, 1
	note C_, 1
	octave 3
	note B_, 1
	note A#, 1
	note A_, 1
	note G#, 1
	note G_, 1
	note F#, 1
	note F_, 1
	note F#, 1
	note G_, 1
	note G#, 1
	note A_, 1
	note A#, 1
	note B_, 1
	octave 4
	note C_, 1
	note C#, 1
	note C_, 1
	octave 3
	note B_, 1
	note A#, 1
	note A_, 1
	note G#, 1
	note G_, 1
	note F#, 1
	note F_, 1
	note F#, 1
	note G_, 1
	note G#, 1
	note A_, 1
	note A#, 1
	note B_, 1
	note A#, 1
	note A_, 1
	note G#, 1
	note G_, 1
	note G#, 1
	note A_, 1
	note A#, 1
	note B_, 1
	octave 4
	note C_, 1
	note_type 12, 11, 5
	octave 3
	note F#, 4
	note E_, 4
	note F#, 4
	note A_, 4
	note G#, 6
	note F#, 6
	note A_, 4
	note_type 12, 11, 7
	octave 4
	note C#, 16
	octave 3
	note B_, 16
	note_type 12, 11, 5
	note F#, 4
	note E_, 4
	note F#, 4
	note A_, 4
	note B_, 6
	octave 4
	note C#, 6
	note D#, 4
	note_type 12, 11, 7
	note E_, 16
	note_type 12, 3, 15
	note B_, 16
	note_type 12, 11, 5
	octave 3
	note E_, 12
	note E_, 2
	rest 2
	note F#, 2
	note E_, 2
	rest 12
	note F_, 12
	note F_, 2
	rest 2
	note A_, 2
	note_type 12, 10, 3
	note G_, 6
	note_type 12, 10, 7
	note F_, 8
	sound_loop 0, Music_MewBattle_branch_230e0


Music_MewBattle_Ch2::
	duty_cycle 3
	vibrato 8, 2, 5
	note_type 12, 12, 3
	octave 4
	note B_, 1
	note A#, 1
	note A_, 1
	octave 5
	note A_, 1
	octave 4
	note B_, 1
	note A#, 1
	note A_, 1
	octave 5
	note A_, 1
	octave 4
	note B_, 1
	note A#, 1
	note A_, 1
	octave 5
	note A_, 1
	octave 4
	note B_, 1
	note A#, 1
	note A_, 1
	octave 5
	note A_, 1
	octave 4
	note B_, 1
	note A#, 1
	note A_, 1
	octave 5
	note A_, 1
	octave 4
	note B_, 1
	note A#, 1
	note A_, 1
	octave 5
	note A_, 1
	octave 4
	note B_, 1
	note A#, 1
	note A_, 1
	octave 5
	note A_, 1
	octave 4
	note B_, 1
	note A#, 1
	note A_, 1
	octave 5
	note A_, 1
	note_type 12, 12, 2
	octave 4
	note B_, 4
	note B_, 2
	note B_, 4
	note B_, 2
	note B_, 4
	note B_, 4
	octave 5
	note E_, 2
	octave 4
	note E_, 2
	note B_, 4
	note B_, 4
	note F_, 2
	note B_, 2
	octave 5
	note F_, 2
	octave 4
	note B_, 4
	note B_, 2
	note B_, 4
	note B_, 6
	note_type 12, 9, 0
	note A#, 10
	note_type 12, 12, 2
	note B_, 4
	note B_, 2
	note B_, 4
	note B_, 2
	note B_, 4
	note E_, 2
	note B_, 2
	octave 5
	note E_, 2
	octave 4
	note E_, 2
	note B_, 4
	note B_, 4
	octave 5
	note C_, 2
	octave 4
	note F_, 2
	note A_, 2
	note B_, 4
	note B_, 2
	note B_, 4
	note B_, 6
	note_type 12, 11, 7
	note B_, 10

Music_MewBattle_branch_23225::
	octave 4
	note_type 12, 12, 5
	note B_, 6
	note A#, 6
	note G#, 4
	note B_, 6
	octave 5
	note C#, 6
	octave 4
	note B_, 4
	octave 6
	note C_, 12
	octave 5
	note B_, 2
	rest 2
	octave 6
	note C_, 2
	octave 5
	note B_, 2
	rest 4
	note_type 12, 11, 7
	octave 6
	note F_, 8
	note_type 12, 12, 5
	octave 4
	note E_, 2
	octave 3
	note G#, 2
	note B_, 2
	octave 4
	note D_, 2
	octave 3
	note G#, 2
	note B_, 2
	octave 4
	note C_, 2
	octave 3
	note G#, 1
	note E_, 1
	octave 4
	note F_, 2
	octave 3
	note G#, 2
	note B_, 2
	octave 4
	note E_, 2
	octave 3
	note G#, 2
	note B_, 2
	octave 4
	note D_, 2
	octave 3
	note G#, 1
	note E_, 1
	octave 4
	note A_, 2
	note E_, 2
	octave 3
	note B_, 2
	octave 4
	note G#, 2
	note E_, 2
	octave 3
	note B_, 2
	octave 4
	note F#, 2
	note E_, 1
	octave 3
	note B_, 1
	note_type 12, 12, 7
	octave 4
	note D_, 2
	octave 3	
	note A_, 2
	octave 4
	note E_, 2
	octave 3
	note A_, 2
	octave 4
	note F#, 2
	note D_, 1
	note F#, 1
	note A_, 2
	octave 3
	note G#, 1
	octave 4
	note D_, 1
	note_type 12, 12, 0
	note F_, 2
	note E_, 2
	octave 4
	note D_, 2
	octave 5
	note C_, 10
	note_type 12, 11, 0
	note C_, 2
	octave 4
	note A_, 2
	note F_, 2
	octave 5
	note C_, 2
	octave 4
	note A_, 2
	note F_, 2
	octave 5
	note C_, 2
	octave 4
	note F_, 2
	note_type 12, 4, 14
	note A#, 1
	note B_, 15
	note_type 12, 12, 7
	octave 5
	note E_, 2
	octave 4
	note B_, 2
	note G#, 2
	note E_, 2
	note B_, 1
	note G#, 1
	note E_, 1
	octave 3
	note G#, 1
	note B_, 1
	octave 4
	note D#, 1
	note E_, 1
	note G#, 1
	octave 3
	note A_, 8
	octave 4
	note D_, 8
	note F#, 8
	note A_, 8
	note_type 12, 12, 0
	note G#, 16
	note_type 12, 12, 7
	note G#, 16
	octave 3
	note A_, 8
	octave 4
	note D_, 8
	note F#, 8
	note A_, 8
	note_type 12, 12, 0
	note B_, 16
	note_type 12, 3, 15
	octave 5
	note E_, 16
	note_type 12, 12, 5
	octave 5
	note G#, 2
	note E_, 2
	octave 4
	note B_, 2
	octave 5
	note G#, 2
	note E_, 2
	octave 4
	note B_, 2
	octave 5
	note G#, 2
	octave 4
	note B_, 1
	octave 5
	note G#, 1
	note A_, 2
	note_type 12, 12, 1
	note G#, 2
	octave 3
	note B_, 2
	octave 4
	note D#, 2
	note E_, 1
	octave 3
	note B_, 1
	note G#, 1
	note E_, 1
	note C_, 1
	note E_, 1
	note G#, 1
	note B_, 1
	note_type 12, 12, 5
	octave 5
	note A_, 2
	note F_, 2
	note C_, 2
	octave 4
	note A_, 1
	octave 5
	note F_, 1
	note A_, 2
	note F_, 2
	note A_, 2
	note F_, 1
	note C_, 1
	octave 6
	note C_, 2
	note_type 12, 10, 3
	octave 5
	note B_, 2
	octave 4
	note F_, 1
	note G#, 1
	octave 5
	note C_, 1
	note F_, 1
	note_type 12, 12, 7
	note A_, 8
	sound_loop 0, Music_MewBattle_branch_23225


Music_MewBattle_Ch3::
	vibrato 0, 2, 0
	note_type 12, 1, 1
	octave 4
	note F_, 1
	rest 1
	note F_, 1
	note E_, 1
	note F#, 1
	rest 1
	note F#, 1
	note E_, 1
	note G_, 1
	rest 1
	note G_, 1
	note E_, 1
	note G#, 1
	rest 1
	note G#, 1
	note E_, 1
	note A_, 1
	rest 1
	note A_, 1
	note E_, 1
	note A#, 1
	rest 1
	note A#, 1
	note E_, 1
	note B_, 1
	rest 1
	note B_, 1
	note E_, 1
	note D_, 2
	note D#, 2

Music_MewBattle_branch_232b5::
	octave 4
	note E_, 2
	note B_, 2
	note E_, 2
	note B_, 2
	note E_, 2
	note B_, 2
	note E_, 2
	note B_, 2
	note E_, 2
	note B_, 2
	note E_, 2
	note B_, 2
	note E_, 2
	note B_, 2
	note E_, 2
	note B_, 2
	note F_, 2
	octave 5
	note C_, 2
	octave 4
	note F_, 4
	octave 5
	note C_, 2
	note D_, 2
	note C_, 2
	octave 4
	note B_, 2
	note F_, 2
	octave 5
	note C_, 2
	octave 4
	note F_, 4
	octave 5
	note C_, 2
	note D_, 2
	note C_, 2
	octave 4
	note A_, 2
	sound_loop 2, Music_MewBattle_branch_232b5

Music_MewBattle_branch_232d8::
	octave 4
	sound_loop 8, .loop1
	note E_, 2
	note B_, 2
	sound_ret
.loop1
	octave 5
	note C_, 12
	octave 4
	note B_, 2
	rest 2
	octave 5
	note C_, 2
	octave 4
	note B_, 2
	rest 4
	note A_, 2
	note G#, 2
	note F#, 2
	note F_, 2
	sound_loop 11, .loop2 ; Repeat E-B pattern 11 times
	note E_, 2
	note B_, 2
	sound_ret
.loop2
	sound_loop 8, .loop3 ; Repeat F-C pattern 8 times
	note F_, 2
	octave 5
	note C_, 2
	octave 4
	sound_ret
.loop3
	sound_loop 8, .loop4 ; Repeat E-B pattern 8 times
	note E_, 2
	note B_, 2
	sound_ret
.loop4
	sound_loop 8, .loop5 ; Repeat D-A pattern 8 times
	note D_, 2
	note A_, 2
	sound_ret
.loop5
	sound_loop 8, .loop6 ; Repeat E-B pattern 8 times
	note E_, 2
	note B_, 2
	sound_ret
.loop6
	sound_loop 8, .loop7 ; Repeat E-A pattern 8 times
	note E_, 2
	note A_, 2
	sound_ret
.loop7
	sound_loop 10, .loop8 ; Repeat E-B pattern 10 times
	note E_, 2
	note B_, 2
	sound_ret
.loop8
	sound_loop 8, .loop9 ; Repeat F-C pattern 8 times
	note F_, 2
	octave 5
	note C_, 2
	octave 4
	sound_ret
.loop9
	sound_loop 0, Music_MewBattle_branch_232d8
